<?xml version="1.0" encoding="UTF-8"?><svg id="Capa_2" xmlns="http://www.w3.org/2000/svg" viewBox="0 0 90.44 90.43"><defs><style>.cls-1,.cls-2{fill:#fff;}.cls-2{stroke:#fff;stroke-miterlimit:10;stroke-width:8px;}</style></defs><g id="Capa_1-2"><g><path class="cls-1" d="M64.7,72.41c-2.85,6.6-6.19,12.36-12.39,15.83-5.85,3.28-12.5,2.36-17.77-2.35-6.41-5.72-9.62-13.23-11.59-21.35-3.83-15.83-3.39-31.46,2.56-46.76,1.57-4.05,3.71-7.81,6.59-11.1,7.6-8.69,17.63-8.92,25.5-.51,1.3,1.39,2.33,2.63,4.12,.7,.56-.6,1.24-.52,1.41,.48,.75,4.31,1.49,8.63,2.34,13.59-4.52-2.29-8.51-4.25-12.43-6.33-1.24-.66-.19-1.29,.37-1.59,2-1.08,1.42-2.07,.17-3.38-5.45-5.7-11.92-5.65-17.26,.39-4.94,5.58-7.36,12.39-8.79,19.55-2.73,13.64-2.16,27.1,2.7,40.25,1.42,3.85,3.43,7.39,6.19,10.46,5.33,5.91,11.85,5.98,17.22,.14,1.17-1.28,2.46-2.63,3.1-4.19,1.5-3.67,4.61-3.39,7.96-3.81Z"/><path class="cls-1" d="M43.59,64.22c9.87,.01,19.28-1.16,28.2-5.09,3.29-1.45,6.35-3.29,8.95-5.79,5.34-5.13,5.4-11.17,.15-16.36-4.19-4.14-9.43-6.47-14.96-8.14-9.93-2.98-20.08-3.59-30.34-2.29-1.85,.24-2.64,.12-1.91-2.07,.74-2.25,1.7-3.52,4.39-3.7,13.76-.92,27.04,.57,39.41,7.14,3.41,1.81,6.45,4.11,8.9,7.12,5.18,6.38,5.06,14.29-.37,20.47-6.04,6.88-14.13,10.03-22.74,12.05-9.05,2.12-18.22,2.57-27.49,1.62-2.59-.27-1.79-1.82-1.71-3.18,.08-1.36,.14-2.61,2.27-2.25,2.45,.41,4.97,.34,7.23,.47Z"/><path class="cls-1" d="M17.81,64.71c-4.78-1.37-8.9-2.54-13.02-3.73-1.52-.44-1.02-1.21-.23-1.88,1.31-1.1,1.15-1.94,.02-3.22-6.26-7.07-6.07-15.22,.38-22.12,3.12-3.33,6.91-5.68,11.02-7.58,1.36-.63,1.94-.52,1.69,1.22-.39,2.75-1.15,4.98-4.03,6.24-2.19,.96-3.96,2.73-5.5,4.61-3.62,4.42-3.58,9.15-.03,13.62,1.06,1.33,1.85,1.74,3,.15,.5-.69,1.27-1.71,1.91-.06,1.54,4.02,3.04,8.06,4.8,12.75Z"/><path class="cls-1" d="M64.14,47.03c0-1.82,.06-3.64-.02-5.46-.11-2.51,1.78-1.84,3.11-2.03,1.39-.2,2.41,0,2.41,1.84,0,4.14,.13,8.28-.46,12.39-.19,1.33-4.24,3.66-5.29,3.01-.59-.37-.4-1.06-.29-1.59,.56-2.7,.35-5.45,.54-8.16Z"/></g><line class="cls-2" x1="3.61" y1="87.61" x2="87.61" y2="3.61"/></g></svg>