<?xml version="1.0" encoding="utf-8"?>
<!-- Generator: Adobe Illustrator 26.3.1, SVG Export Plug-In . SVG Version: 6.00 Build 0)  -->
<svg version="1.1" id="Capa_1" xmlns="http://www.w3.org/2000/svg" xmlns:xlink="http://www.w3.org/1999/xlink" x="0px" y="0px"
	 viewBox="0 0 325.3 359.1" style="enable-background:new 0 0 325.3 359.1;" xml:space="preserve">
<style type="text/css">
	.st0{fill:#FFFFFF;}
	.st1{fill:#FFF100;}
</style>
<path class="st0" d="M311.6,116.3c4.3,8.7,6.5,19.3,6.5,31.8c0,15.1-2.7,28.2-8.1,39.2c-5,10.5-12.2,19.8-21.1,27.2
	c-8.6,7.1-18.6,12.5-29.3,15.9c-10.5,3.4-21.5,5.1-32.6,5.2c-10.2,0.1-20.4-1.2-30.3-3.9c-5-1.4-10-3.2-14.7-5.4
	c-1.2,1.9-2.5,3.7-3.9,5.5c-5,6.5-10.7,12.4-17,17.7c-6.5,5.5-13.5,11.2-21.1,17l-58.3,45.7h105.5l-19.5,46H0l7.8-44.7l103.4-80.7
	c9.1-7.6,15.9-14.5,20.6-20.7s7-12.6,7-19.1c0-7.5-2.3-13.5-7-18c-4.7-4.5-11.5-6.7-20.6-6.6c-8.5-0.2-16.8,2.9-23.2,8.6
	c-6.4,5.7-11.1,13.8-14.1,24.1l-48.6-10c6.5-21.8,17.8-38.7,33.9-50.6s34.9-17.8,56.6-17.8c10.4-0.1,20.8,1.3,30.8,4.2
	c9,2.5,17.4,6.8,24.8,12.5c6.9,5.4,12.6,12.2,16.5,20.1c0.9,1.7,1.6,3.4,2.3,5.2l0,0c0,0.1,0,0.1,0.1,0.2c0.2,0.6,0.5,1.3,0.7,1.9
	c2.4,6.5,6.7,12.2,12.4,16.3c6.4,4.8,14,7.1,22.9,7.1c11.5,0,20.7-3.3,27.7-9.9c7.5-7,11.8-16.8,11.6-27.1c0-5.3-1.1-10.6-3.4-15.4
	c-4.6-9.9-15.3-15.7-22.8-17.4c-5.2-1.2-10.4-1.8-15.7-1.8c-9.4,0.1-18.7,1.2-27.9,3.2c-9.7,2-19.2,4.7-28.5,8.1L194.6,0h130.7
	l-19.1,45.4h-73.9L223.8,83c3-0.7,6.5-1.2,10.5-1.6c3.7-0.4,7.4-0.6,11.2-0.6c8.6,0,17.2,1.2,25.6,3.4c8.5,2.2,16.5,6,23.5,11.3
	C301.8,101,307.6,108.1,311.6,116.3z M209.1,333.4l-8.8-21.1h-5l-8.8,21.1h5.5l1.6-4.2h8.2l1.6,4.2H209.1z M200.4,325.2H195l2.7-7.2
	L200.4,325.2z M231.6,333.4v-21.2h-5l0.1,13.8h-0.1l-8.5-13.8h-5.8v21.2h5l-0.1-13.8h0.1l8.5,13.8H231.6z M225.5,306.6
	c-0.1,0.3-0.2,0.6-0.4,0.9c-0.2,0.2-0.5,0.4-0.8,0.3c-0.3,0-0.6-0.1-0.9-0.2c-0.4-0.1-0.7-0.3-1.1-0.4c-0.4-0.2-0.8-0.3-1.2-0.4
	c-0.4-0.1-0.8-0.2-1.2-0.2c-0.5,0-1,0.1-1.4,0.3c-0.4,0.2-0.7,0.5-1,0.9c-0.3,0.4-0.5,0.8-0.6,1.2c-0.2,0.5-0.3,1-0.3,1.5h2.1
	c0.1-0.3,0.2-0.6,0.4-0.8c0.2-0.2,0.5-0.4,0.8-0.3c0.3,0,0.6,0,0.9,0.1c0.3,0.1,0.7,0.3,1,0.5c0.4,0.2,0.8,0.3,1.2,0.5
	c0.4,0.1,0.8,0.2,1.2,0.2c0.5,0,1-0.1,1.4-0.3c0.4-0.2,0.7-0.5,1-0.9c0.3-0.4,0.5-0.8,0.6-1.2c0.2-0.5,0.3-1,0.3-1.5L225.5,306.6
	L225.5,306.6z M258.5,318.2c-0.5-1.3-1.4-2.5-2.4-3.5c-1.1-1-2.3-1.7-3.7-2.2c-1.5-0.5-3-0.8-4.6-0.8c-1.6,0-3.1,0.2-4.6,0.8
	c-1.4,0.5-2.6,1.2-3.6,2.2c-1,1-1.9,2.2-2.4,3.5c-1.2,2.9-1.2,6.2,0,9.2c0.5,1.3,1.4,2.5,2.4,3.5c1,1,2.3,1.8,3.6,2.3
	c3,1.1,6.2,1.1,9.2,0c1.4-0.5,2.6-1.3,3.7-2.3c1-1,1.9-2.2,2.4-3.5c0.6-1.5,0.9-3,0.9-4.6C259.4,321.2,259.1,319.6,258.5,318.2
	L258.5,318.2z M253.5,325.4c-0.3,0.8-0.7,1.5-1.3,2.1c-2.3,2.4-6.1,2.5-8.5,0.2c-0.1-0.1-0.1-0.1-0.2-0.2c-0.5-0.6-1-1.3-1.2-2.1
	c-0.3-0.8-0.5-1.7-0.5-2.6c0-0.9,0.1-1.7,0.4-2.6c0.5-1.5,1.7-2.8,3.1-3.4c0.8-0.3,1.6-0.5,2.4-0.5c0.8,0,1.7,0.2,2.5,0.5
	c0.7,0.3,1.4,0.8,1.9,1.3c0.5,0.6,1,1.3,1.2,2c0.3,0.8,0.5,1.7,0.5,2.6C254,323.7,253.8,324.6,253.5,325.4L253.5,325.4z
	 M278.3,314.4c-1-0.9-2.1-1.5-3.4-1.9c-1.2-0.4-2.4-0.7-3.7-0.7c-1,0-2,0.1-3,0.4c-0.9,0.2-1.8,0.6-2.6,1.2
	c-0.8,0.5-1.4,1.2-1.9,2.1c-0.5,0.9-0.7,2-0.7,3c0,0.8,0.1,1.7,0.5,2.4c0.3,0.6,0.7,1.2,1.2,1.7c0.5,0.5,1.1,0.9,1.7,1.2
	c0.7,0.3,1.3,0.6,2,0.8l1.9,0.6c0.5,0.2,0.9,0.4,1.4,0.6c0.3,0.2,0.6,0.5,0.9,0.8c0.2,0.3,0.3,0.6,0.3,1c0,0.4-0.1,0.7-0.2,1.1
	c-0.1,0.3-0.4,0.5-0.6,0.7c-0.3,0.2-0.6,0.3-0.9,0.4c-0.4,0.1-0.7,0.1-1.1,0.1c-0.9,0-1.7-0.2-2.5-0.6c-0.8-0.4-1.5-0.9-2-1.6
	l-3.3,3.4c1,1,2.2,1.8,3.5,2.2c1.4,0.5,2.9,0.8,4.4,0.8c1,0,2-0.1,3-0.4c0.9-0.3,1.8-0.7,2.6-1.3c0.8-0.6,1.4-1.3,1.8-2.2
	c0.5-1,0.7-2.1,0.7-3.2c0-0.9-0.2-1.8-0.6-2.7c-0.4-0.7-0.9-1.3-1.5-1.8c-0.6-0.5-1.4-0.9-2.1-1.1c-0.8-0.3-1.5-0.6-2.2-0.8
	c-0.5-0.2-1-0.3-1.4-0.5c-0.3-0.1-0.7-0.3-1-0.5c-0.3-0.2-0.5-0.4-0.7-0.6c-0.2-0.3-0.2-0.6-0.2-0.9c0-0.4,0.1-0.7,0.3-1
	c0.2-0.3,0.4-0.5,0.7-0.7c0.3-0.2,0.6-0.3,0.9-0.3c0.3-0.1,0.7-0.1,1-0.1c0.7,0,1.4,0.2,2,0.5c0.7,0.3,1.3,0.8,1.7,1.3L278.3,314.4z
	 M198.7,358.6l-8.8-21.1h-5l-8.9,21.1h5.5l1.5-4.2h8.2l1.6,4.2L198.7,358.6z M189.9,350.4h-5.3l2.7-7.3L189.9,350.4z M221.2,358.7
	v-21.2h-5l0.1,13.8h-0.1l-8.5-13.8H202v21.1h4.9l-0.1-13.8h0.1l8.5,13.8L221.2,358.7z M245.6,337.5h-6l-4.5,7.8l-4.5-7.8h-6.2
	l7.9,12.2v9h5.1v-9L245.6,337.5z M262.4,339.6c-0.9-0.9-2.1-1.5-3.3-1.9c-1.2-0.4-2.4-0.6-3.7-0.7c-1,0-2,0.1-3,0.4
	c-0.9,0.2-1.8,0.6-2.6,1.2c-0.8,0.5-1.4,1.2-1.9,2.1c-0.5,0.9-0.7,2-0.7,3c0,0.8,0.1,1.7,0.5,2.4c0.3,0.6,0.7,1.2,1.2,1.7
	c0.5,0.5,1.1,0.9,1.7,1.2c0.6,0.3,1.3,0.6,2,0.8l1.9,0.6c0.5,0.2,0.9,0.4,1.4,0.6c0.3,0.2,0.6,0.5,0.9,0.8c0.2,0.3,0.3,0.6,0.3,1
	c0,0.4-0.1,0.7-0.2,1.1c-0.1,0.3-0.4,0.5-0.6,0.7c-0.3,0.2-0.6,0.3-1,0.4c-0.4,0.1-0.7,0.1-1.1,0.1c-0.9,0-1.7-0.2-2.5-0.6
	c-0.8-0.4-1.5-0.9-2-1.6l-3.4,3.4c1,1,2.2,1.8,3.5,2.3c1.4,0.5,2.9,0.8,4.4,0.8c1,0,2-0.1,3-0.4c0.9-0.3,1.8-0.7,2.6-1.3
	c0.8-0.6,1.4-1.3,1.8-2.2c0.5-1,0.7-2.1,0.7-3.2c0-0.9-0.2-1.8-0.6-2.7c-0.4-0.7-0.9-1.3-1.6-1.8c-0.7-0.5-1.4-0.9-2.1-1.2
	c-0.8-0.3-1.5-0.5-2.2-0.8c-0.5-0.2-0.9-0.3-1.3-0.5c-0.3-0.1-0.7-0.3-1-0.5c-0.3-0.2-0.5-0.4-0.7-0.6c-0.2-0.3-0.2-0.6-0.2-0.9
	c0-0.4,0.1-0.7,0.3-1c0.2-0.3,0.4-0.5,0.7-0.7c0.3-0.2,0.6-0.3,0.9-0.3c0.3-0.1,0.7-0.1,1-0.1c0.7,0,1.4,0.2,2,0.5
	c0.7,0.3,1.3,0.8,1.7,1.3L262.4,339.6z"/>
<path class="st1" d="M251.9,154.4c0,13-11.2,23.5-25,23.5s-25-10.5-25-23.5s11.2-23.5,25-23.5S251.9,141.4,251.9,154.4z"/>
</svg>
