<svg id="Capa_1" data-name="Capa 1" xmlns="http://www.w3.org/2000/svg" xmlns:xlink="http://www.w3.org/1999/xlink" viewBox="0 0 325.27 359.15"><defs><style>.cls-1{fill:url(#linear-gradient);}.cls-2{fill:#fff100;}</style><linearGradient id="linear-gradient" x1="228.54" y1="-35.04" x2="725.94" y2="462.36" gradientTransform="matrix(0.69, 0, 0, -0.69, -0.08, 634.58)" gradientUnits="userSpaceOnUse"><stop offset="0.06" stop-color="#859eb2"/><stop offset="1" stop-color="#194068"/></linearGradient></defs><path class="cls-1" d="M444.72,392.9q6.48,13,6.48,31.76,0,22.69-8.1,39.22A80.78,80.78,0,0,1,422,491.1,86.88,86.88,0,0,1,392.7,507a107.58,107.58,0,0,1-32.57,5.19,113.62,113.62,0,0,1-30.3-3.89,94.76,94.76,0,0,1-14.71-5.39c-1.23,1.89-2.53,3.74-3.94,5.54a118.64,118.64,0,0,1-17,17.67q-9.72,8.26-21.07,17l-58.34,45.7H320.31l-19.54,46H133.11l7.78-44.72,103.38-80.69q13.6-11.34,20.58-20.74t7-19.13q0-11.32-7-18t-20.58-6.65a33.46,33.46,0,0,0-23.17,8.59q-9.57,8.6-14.1,24.15l-48.61-10q9.72-32.73,33.86-50.56t56.55-17.82a108.55,108.55,0,0,1,30.79,4.21,73.32,73.32,0,0,1,24.79,12.48A59.51,59.51,0,0,1,320.91,436a52.22,52.22,0,0,1,2.27,5.19h0c0,.07.05.14.07.2.24.64.47,1.29.68,1.94a35.83,35.83,0,0,0,12.37,16.33q9.56,7.13,22.85,7.13,17.18,0,27.71-9.88a36.06,36.06,0,0,0,11.62-27.06,35.51,35.51,0,0,0-3.4-15.39c-4.64-9.92-15.32-15.71-22.77-17.43a69.26,69.26,0,0,0-15.72-1.79,135.38,135.38,0,0,0-27.86,3.24,213,213,0,0,0-28.53,8.1l27.52-130H458.38l-19.14,45.37H365.32l-8.42,37.59q4.53-1,10.53-1.62a105,105,0,0,1,11.18-.64,100.42,100.42,0,0,1,25.6,3.4A67,67,0,0,1,427.71,372,58.44,58.44,0,0,1,444.72,392.9ZM342.19,610l-8.78-21.14h-5L319.58,610h5.55l1.56-4.15h8.18l1.64,4.15Zm-8.72-8.24h-5.32l2.69-7.25ZM364.73,610V588.85h-5l.12,13.8h-.09l-8.48-13.8h-5.82V610h4.95l-.12-13.82h.09L358.93,610Zm-6.1-26.88a2.49,2.49,0,0,1-.42.88,1,1,0,0,1-.84.34,2.64,2.64,0,0,1-.86-.15,8.75,8.75,0,0,1-1.07-.44,8.18,8.18,0,0,0-1.19-.44,4.42,4.42,0,0,0-1.21-.16,3,3,0,0,0-1.4.31,3.06,3.06,0,0,0-1,.86,4.34,4.34,0,0,0-.64,1.23,7.23,7.23,0,0,0-.33,1.48h2.15a2.57,2.57,0,0,1,.43-.84,1,1,0,0,1,.83-.35,2.83,2.83,0,0,1,.85.13,6.5,6.5,0,0,1,1,.46,9.75,9.75,0,0,0,1.2.45,4.19,4.19,0,0,0,1.22.18,2.84,2.84,0,0,0,1.4-.33,3.25,3.25,0,0,0,1-.87,4.19,4.19,0,0,0,.63-1.25,7.57,7.57,0,0,0,.33-1.5h-2.12Zm33,11.63a10,10,0,0,0-2.4-3.47,10.92,10.92,0,0,0-3.66-2.22,13.46,13.46,0,0,0-4.6-.77,13.3,13.3,0,0,0-4.58.77,10.67,10.67,0,0,0-3.64,2.22,10,10,0,0,0-2.4,3.47,12.52,12.52,0,0,0,0,9.17,10.37,10.37,0,0,0,2.4,3.55,10.68,10.68,0,0,0,3.64,2.29,13.57,13.57,0,0,0,9.18,0,10.67,10.67,0,0,0,3.66-2.29,10.37,10.37,0,0,0,2.4-3.55,11.72,11.72,0,0,0,.87-4.58A11.49,11.49,0,0,0,391.61,594.74Zm-5,7.23a6.23,6.23,0,0,1-1.26,2.08,6,6,0,0,1-8.7,0,6.17,6.17,0,0,1-1.23-2.08,7.5,7.5,0,0,1-.45-2.64,7.41,7.41,0,0,1,.43-2.57,5.79,5.79,0,0,1,3.15-3.4,5.88,5.88,0,0,1,2.44-.49,6.05,6.05,0,0,1,2.47.49,5.71,5.71,0,0,1,1.91,1.35,6.11,6.11,0,0,1,1.24,2,7.42,7.42,0,0,1,.45,2.57A7.7,7.7,0,0,1,386.57,602Zm24.74-11.06A9.14,9.14,0,0,0,408,589a10.89,10.89,0,0,0-3.65-.66,11.89,11.89,0,0,0-3,.37,8,8,0,0,0-2.62,1.18,6.37,6.37,0,0,0-1.89,2.07,6,6,0,0,0-.71,3,5.7,5.7,0,0,0,.46,2.43,5.32,5.32,0,0,0,1.22,1.71,6.78,6.78,0,0,0,1.73,1.15,18.56,18.56,0,0,0,2,.77l1.87.61a7.38,7.38,0,0,1,1.37.63,2.77,2.77,0,0,1,.85.76,1.71,1.71,0,0,1,.3,1,2.2,2.2,0,0,1-.24,1.07,1.94,1.94,0,0,1-.64.72,2.94,2.94,0,0,1-.94.38,5.1,5.1,0,0,1-1.11.12,5.54,5.54,0,0,1-2.52-.64,6.39,6.39,0,0,1-2.05-1.6l-3.34,3.41a9.36,9.36,0,0,0,3.52,2.25,12.44,12.44,0,0,0,4.39.79,10.9,10.9,0,0,0,3-.42,7.9,7.9,0,0,0,2.6-1.28,6.26,6.26,0,0,0,1.8-2.2,6.87,6.87,0,0,0,.68-3.15,5.12,5.12,0,0,0-.63-2.65A6.29,6.29,0,0,0,409,599a8.31,8.31,0,0,0-2.12-1.14c-.78-.29-1.53-.56-2.24-.79-.5-.16-1-.32-1.35-.46a5.82,5.82,0,0,1-1-.5,2.08,2.08,0,0,1-.66-.62,1.67,1.67,0,0,1-.23-.9,1.74,1.74,0,0,1,.29-1,2.33,2.33,0,0,1,.7-.66,2.64,2.64,0,0,1,.94-.34,6.06,6.06,0,0,1,1-.09,4.86,4.86,0,0,1,2,.5,4.66,4.66,0,0,1,1.72,1.32Zm-79.55,44.28L323,614.05h-5l-8.87,21.14h5.55l1.55-4.15h8.19l1.64,4.15ZM323.05,627h-5.32l2.68-7.26Zm31.25,8.24V614.05h-4.95l.11,13.8h-.08l-8.48-13.8h-5.83v21.14H340l-.11-13.82H340l8.51,13.82Zm24.39-21.14h-6l-4.51,7.83-4.51-7.83h-6.18l7.94,12.18v9h5.11v-9Zm16.78,2.05a9.44,9.44,0,0,0-3.27-1.93,11,11,0,0,0-3.66-.66,11.75,11.75,0,0,0-3,.37,8.06,8.06,0,0,0-2.63,1.18,6.3,6.3,0,0,0-1.88,2.06,6,6,0,0,0-.72,3,5.72,5.72,0,0,0,.47,2.43,5,5,0,0,0,1.22,1.7,6.37,6.37,0,0,0,1.73,1.15,16.09,16.09,0,0,0,2,.78l1.86.61a6.89,6.89,0,0,1,1.38.63,2.76,2.76,0,0,1,.85.76,1.71,1.71,0,0,1,.3,1,2.25,2.25,0,0,1-.25,1.07,1.88,1.88,0,0,1-.63.71,2.8,2.8,0,0,1-.95.39,5,5,0,0,1-1.1.11,5.48,5.48,0,0,1-2.52-.64,6.05,6.05,0,0,1-2-1.6l-3.35,3.41a9.29,9.29,0,0,0,3.53,2.26,12.62,12.62,0,0,0,4.39.79,10.9,10.9,0,0,0,3-.42,7.68,7.68,0,0,0,2.59-1.29,6.25,6.25,0,0,0,1.81-2.19,6.9,6.9,0,0,0,.67-3.15,5.12,5.12,0,0,0-.62-2.65,6.15,6.15,0,0,0-1.58-1.78,8.73,8.73,0,0,0-2.13-1.15c-.77-.29-1.52-.55-2.24-.79-.49-.15-.94-.31-1.34-.46a5.83,5.83,0,0,1-1-.49,2,2,0,0,1-.66-.63,1.63,1.63,0,0,1-.23-.89,1.81,1.81,0,0,1,.28-1,2.44,2.44,0,0,1,.7-.66,2.64,2.64,0,0,1,.94-.34,5.29,5.29,0,0,1,1-.09,4.79,4.79,0,0,1,2,.49,4.6,4.6,0,0,1,1.72,1.33Z" transform="translate(-133.11 -276.56)"/><path class="cls-2" d="M385,431c0,13-11.19,23.55-25,23.55S335,444,335,431s11.19-23.55,25-23.55S385,418,385,431Z" transform="translate(-133.11 -276.56)"/></svg>